<svg width="96" height="96" xmlns="http://www.w3.org/2000/svg" overflow="hidden">
    <defs>
        <clipPath id="clip0">
            <rect x="659" y="191" width="96" height="96"/>
        </clipPath>
    </defs>
    <g clip-path="url(#clip0)" transform="translate(-659 -191)">
        <path d="M704 258 710 258 710 266 704 266Z" fill="#0070C0"/>
        <path d="M704 270 710 270 710 276 704 276Z" fill="#0070C0"/>
        <path d="M714 270 743 270 743 276 714 276Z" fill="#0070C0"/>
        <path d="M671 270 700 270 700 276 671 276Z" fill="#0070C0"/>
        <path d="M735.42 242 678.58 242C676.603 242 675 243.603 675 245.58L675 254.42C675 256.397 676.603 258 678.58 258L735.42 258C737.397 258 739 256.397 739 254.42L739 245.58C739 243.603 737.397 242 735.42 242ZM685 252C683.895 252 683 251.105 683 250 683 248.895 683.895 248 685 248 686.105 248 687 248.895 687 250 687 251.105 686.105 252 685 252ZM695 252C693.895 252 693 251.105 693 250 693 248.895 693.895 248 695 248 696.105 248 697 248.895 697 250 697 251.105 696.105 252 695 252ZM705 252C703.895 252 703 251.105 703 250 703 248.895 703.895 248 705 248 706.105 248 707 248.895 707 250 707 251.105 706.105 252 705 252Z"
              fill="#0070C0"/>
        <path d="M735.42 222 678.58 222C676.603 222 675 223.603 675 225.58L675 234.42C675 236.397 676.603 238 678.58 238L735.42 238C737.397 238 739 236.397 739 234.42L739 225.58C739 223.603 737.397 222 735.42 222ZM685 232C683.895 232 683 231.105 683 230 683 228.895 683.895 228 685 228 686.105 228 687 228.895 687 230 687 231.105 686.105 232 685 232ZM695 232C693.895 232 693 231.105 693 230 693 228.895 693.895 228 695 228 696.105 228 697 228.895 697 230 697 231.105 696.105 232 695 232ZM705 232C703.895 232 703 231.105 703 230 703 228.895 703.895 228 705 228 706.105 228 707 228.895 707 230 707 231.105 706.105 232 705 232Z"
              fill="#0070C0"/>
        <path d="M735.42 202 678.58 202C676.603 202 675 203.603 675 205.58L675 214.42C675 216.397 676.603 218 678.58 218L735.42 218C737.397 218 739 216.397 739 214.42L739 205.58C739 203.603 737.397 202 735.42 202ZM685 212C683.895 212 683 211.105 683 210 683 208.895 683.895 208 685 208 686.105 208 687 208.895 687 210 687 211.105 686.105 212 685 212ZM695 212C693.895 212 693 211.105 693 210 693 208.895 693.895 208 695 208 696.105 208 697 208.895 697 210 697 211.105 696.105 212 695 212ZM705 212C703.895 212 703 211.105 703 210 703 208.895 703.895 208 705 208 706.105 208 707 208.895 707 210 707 211.105 706.105 212 705 212Z"
              fill="#0070C0"/>
    </g>
</svg>